<svg xmlns="http://www.w3.org/2000/svg" xmlns:xlink="http://www.w3.org/1999/xlink" viewBox="0 0 400.67 103.42"><defs><style>.cls-1,.cls-11,.cls-12,.cls-6{fill:none;}.cls-2{fill:#fff;}.cls-3{clip-path:url(#clip-path);}.cls-4{fill:#5a5a5a;}.cls-5{fill:#0080c5;}.cls-6{stroke:#666;}.cls-10,.cls-11,.cls-12,.cls-6{stroke-miterlimit:10;}.cls-7{fill:#999;}.cls-8{fill:#ffc255;}.cls-10,.cls-9{fill:#a0daf7;}.cls-10,.cls-11{stroke:#5a5a5a;}.cls-12{stroke:#b3b3b3;}.cls-13{fill:#f9ff6b;}</style><clipPath id="clip-path"><path class="cls-1" d="M394.38,43.86c1.26-.06,1.68.51,1.68,1.74,0,1-.1,43.67-.1,44.83,0,1-.64,1.26-1.66,1.65s-8.39,1.81-9,1.91a10.14,10.14,0,0,1-1.58.18l-41.28,0c-.66,0-1.24-.44-1.24-1.57,0-3.13-2.5-7.16-5.87-9.08A11.61,11.61,0,0,0,322,85.1c-2.38,2.17-3.42,5.6-4,7.27A2.21,2.21,0,0,1,315.58,94l-116.32.19c-.66,0-1.24-.44-1.24-1.57,0-3.13-2.5-7.16-5.87-9.08a11.61,11.61,0,0,0-13.37,1.55c-2.38,2.17-3.42,5.6-4,7.27A2.21,2.21,0,0,1,172.36,94l-97.83.19c-.66,0-1.24-.44-1.24-1.57,0-3.13-2.5-7.16-5.87-9.08A11.61,11.61,0,0,0,54.06,85.1c-2.38,2.17-3.42,5.6-4,7.27A2.21,2.21,0,0,1,47.64,94c-1.66,0-36.45.31-38,.29-1.06,0-1.87-.49-1.77-1.62,0-.55.09-3.26.09-3.6S8,86.26,8,85.88c0-.86-.22-6.64-.23-7.95a17.28,17.28,0,0,1,.27-2.06c.15-1.57,1.81-29.63,1.83-30.42a1.3,1.3,0,0,1,1.29-1.27C12,44.18,393.54,43.89,394.38,43.86Z"/></clipPath></defs><title>Bus</title><g id="Ebene_2" data-name="Ebene 2"><g id="Ebene_1-2" data-name="Ebene 1"><path class="cls-2" d="M394.38,43.86c1.26-.06,1.68.51,1.68,1.74,0,1-.1,43.67-.1,44.83,0,1-.64,1.26-1.66,1.65s-8.39,1.81-9,1.91a10.14,10.14,0,0,1-1.58.18l-41.28,0c-.66,0-1.24-.44-1.24-1.57,0-3.13-2.5-7.16-5.87-9.08A11.61,11.61,0,0,0,322,85.1c-2.38,2.17-3.42,5.6-4,7.27A2.21,2.21,0,0,1,315.58,94l-116.32.19c-.66,0-1.24-.44-1.24-1.57,0-3.13-2.5-7.16-5.87-9.08a11.61,11.61,0,0,0-13.37,1.55c-2.38,2.17-3.42,5.6-4,7.27A2.21,2.21,0,0,1,172.36,94l-97.83.19c-.66,0-1.24-.44-1.24-1.57,0-3.13-2.5-7.16-5.87-9.08A11.61,11.61,0,0,0,54.06,85.1c-2.38,2.17-3.42,5.6-4,7.27A2.21,2.21,0,0,1,47.64,94c-1.66,0-36.45.31-38,.29-1.06,0-1.87-.49-1.77-1.62,0-.55.09-3.26.09-3.6S8,86.26,8,85.88c0-.86-.22-6.64-.23-7.95a17.28,17.28,0,0,1,.27-2.06c.15-1.57,1.81-29.63,1.83-30.42a1.3,1.3,0,0,1,1.29-1.27C12,44.18,393.54,43.89,394.38,43.86Z"/><g class="cls-3"><rect class="cls-4" x="3.85" y="49.06" width="201.15" height="30.37"/><rect class="cls-4" x="239.71" y="49.06" width="160.95" height="30.37"/><rect class="cls-5" y="86.64" width="204.92" height="15"/><rect class="cls-5" x="239.71" y="86.64" width="159.37" height="15"/></g><circle class="cls-4" cx="61.77" cy="93.78" r="9.64"/><circle class="cls-4" cx="186.49" cy="93.78" r="9.64"/><circle class="cls-4" cx="329.71" cy="93.78" r="9.64"/><path class="cls-6" d="M276.58,36.12S353.89,9.95,358.11,8.42c3.25-1.18,4.53-1.68,4.53-6.72V0"/><rect class="cls-2" x="263.51" y="33.22" width="29.07" height="4.6" rx="0.82" ry="0.82" transform="translate(3.7 93) rotate(-19.11)"/><path class="cls-2" d="M11.32,44.23s7.43-7,24.85-7.18c2.91,0,34.11-.25,37.26-.36,0,0,315.75.11,318.9,0s3,1.25,3,2.68v5.08"/><circle class="cls-7" cx="61.77" cy="93.78" r="4.61"/><circle class="cls-7" cx="186.49" cy="93.78" r="4.61"/><circle class="cls-7" cx="329.71" cy="93.78" r="4.61"/><circle class="cls-8" cx="11.62" cy="82.6" r="1.66"/><path class="cls-9" d="M9.51,52.11h.94c.84,0,1.14.63,1.14,1.57V73.5c0,1.1-1.33,2.35-3.13,2.35h-.4"/><rect class="cls-10" x="15.52" y="50.95" width="24.53" height="21.33" rx="0.82" ry="0.82"/><rect class="cls-10" x="53.85" y="50.95" width="20.85" height="26.71" rx="0.82" ry="0.82"/><rect class="cls-2" x="95.6" y="29.82" width="18.58" height="6.87" rx="0.82" ry="0.82"/><rect class="cls-2" x="116.39" y="29.82" width="62.8" height="6.87" rx="0.82" ry="0.82"/><rect class="cls-2" x="184.94" y="31.81" width="12.35" height="4.89" rx="0.82" ry="0.82"/><rect class="cls-2" x="249.5" y="29.82" width="14.9" height="6.87" rx="0.82" ry="0.82"/><rect class="cls-4" x="65.47" y="50.95" width="9.23" height="8.29" rx="0.82" ry="0.82"/><rect class="cls-10" x="245.75" y="50.95" width="27.65" height="26.71" rx="0.82" ry="0.82"/><rect class="cls-10" x="275.8" y="50.95" width="27.65" height="26.71" rx="0.82" ry="0.82"/><rect class="cls-10" x="305.86" y="50.95" width="27.65" height="26.71" rx="0.82" ry="0.82"/><rect class="cls-10" x="335.91" y="50.95" width="27.65" height="26.71" rx="0.82" ry="0.82"/><rect class="cls-10" x="365.96" y="50.95" width="27.65" height="26.71" rx="0.82" ry="0.82"/><line class="cls-11" x1="23.1" y1="51.01" x2="23.1" y2="72.31"/><line class="cls-11" x1="32.06" y1="51.01" x2="32.06" y2="72.31"/><line class="cls-1" x1="205" y1="36.55" x2="205" y2="94.42"/><line class="cls-12" x1="207.04" y1="36.55" x2="207.04" y2="94.42"/><line class="cls-12" x1="209.07" y1="36.55" x2="209.07" y2="94.42"/><line class="cls-12" x1="211.11" y1="36.55" x2="211.11" y2="94.42"/><line class="cls-12" x1="213.14" y1="36.55" x2="213.14" y2="94.42"/><line class="cls-12" x1="215.18" y1="36.55" x2="215.18" y2="94.42"/><line class="cls-12" x1="217.21" y1="36.55" x2="217.21" y2="94.42"/><line class="cls-12" x1="219.25" y1="36.55" x2="219.25" y2="94.42"/><line class="cls-12" x1="221.28" y1="36.55" x2="221.28" y2="94.42"/><line class="cls-12" x1="223.32" y1="36.55" x2="223.32" y2="94.42"/><line class="cls-12" x1="225.36" y1="36.55" x2="225.36" y2="94.42"/><line class="cls-12" x1="227.39" y1="36.55" x2="227.39" y2="94.42"/><line class="cls-12" x1="229.43" y1="36.55" x2="229.43" y2="94.42"/><line class="cls-12" x1="231.46" y1="36.55" x2="231.46" y2="94.42"/><line class="cls-12" x1="233.5" y1="36.55" x2="233.5" y2="94.42"/><line class="cls-12" x1="235.53" y1="36.55" x2="235.53" y2="94.42"/><line class="cls-12" x1="237.57" y1="36.55" x2="237.57" y2="94.42"/><line class="cls-1" x1="239.6" y1="36.55" x2="239.6" y2="94.42"/><path class="cls-13" d="M69.6,55.81a1.61,1.61,0,0,1-.1.58A1.18,1.18,0,0,1,69,57a1.39,1.39,0,0,1-.77.21,1.36,1.36,0,0,1-.77-.22,1.21,1.21,0,0,1-.47-.59,1.64,1.64,0,0,1-.09-.45.09.09,0,0,1,.1-.1h.62a.1.1,0,0,1,.1.1.87.87,0,0,0,.06.25.46.46,0,0,0,.17.23.47.47,0,0,0,.28.08.44.44,0,0,0,.44-.28.94.94,0,0,0,.08-.4,1,1,0,0,0-.09-.44.45.45,0,0,0-.44-.27.52.52,0,0,0-.26.11l-.06,0a.1.1,0,0,1-.08,0l-.3-.41a.11.11,0,0,1,0-.07.1.1,0,0,1,0-.07l.9-.78s0,0,0,0H67.11a.09.09,0,0,1-.1-.1v-.5a.09.09,0,0,1,.1-.1h2.34a.09.09,0,0,1,.1.1v.56a.17.17,0,0,1-.05.12l-.75.69s0,0,0,0a1,1,0,0,1,.72.59A1.53,1.53,0,0,1,69.6,55.81Z"/><path class="cls-13" d="M70.11,57v-.48a.18.18,0,0,1,.05-.12l.5-.53L71,55.5l.4-.44a1.67,1.67,0,0,0,.52-.86.43.43,0,0,0-.14-.33.61.61,0,0,0-.75,0,.44.44,0,0,0-.14.34v.12a.09.09,0,0,1-.1.1h-.62a.09.09,0,0,1-.1-.1v-.24a1,1,0,0,1,.2-.55,1.14,1.14,0,0,1,.48-.37,1.68,1.68,0,0,1,.67-.13,1.56,1.56,0,0,1,.71.15,1.15,1.15,0,0,1,.47.41,1.05,1.05,0,0,1,.16.58,1.14,1.14,0,0,1-.12.5,2.76,2.76,0,0,1-.36.55q-.23.28-.79.87l-.27.29s0,0,0,0h1.54a.09.09,0,0,1,.1.1V57a.09.09,0,0,1-.1.1H70.2A.09.09,0,0,1,70.11,57Z"/><rect class="cls-10" x="81.03" y="50.95" width="27.65" height="26.71" rx="0.82" ry="0.82"/><rect class="cls-10" x="111.09" y="50.95" width="27.65" height="26.71" rx="0.82" ry="0.82"/><rect class="cls-10" x="141.14" y="50.95" width="27.65" height="26.71" rx="0.82" ry="0.82"/><rect class="cls-10" x="171.2" y="50.95" width="27.65" height="26.71" rx="0.82" ry="0.82"/><path class="cls-1" d="M394.38,43.86c1.26-.06,1.68.51,1.68,1.74,0,1-.1,43.67-.1,44.83,0,1-.64,1.26-1.66,1.65s-8.39,1.81-9,1.91a10.14,10.14,0,0,1-1.58.18l-41.28,0c-.66,0-1.24-.44-1.24-1.57,0-3.13-2.5-7.16-5.87-9.08A11.61,11.61,0,0,0,322,85.1c-2.38,2.17-3.42,5.6-4,7.27A2.21,2.21,0,0,1,315.58,94l-116.32.19c-.66,0-1.24-.44-1.24-1.57,0-3.13-2.5-7.16-5.87-9.08a11.61,11.61,0,0,0-13.37,1.55c-2.38,2.17-3.42,5.6-4,7.27A2.21,2.21,0,0,1,172.36,94l-97.83.19c-.66,0-1.24-.44-1.24-1.57,0-3.13-2.5-7.16-5.87-9.08A11.61,11.61,0,0,0,54.06,85.1c-2.38,2.17-3.42,5.6-4,7.27A2.21,2.21,0,0,1,47.64,94c-1.66,0-36.45.31-38,.29-1.06,0-1.87-.49-1.77-1.62,0-.55.09-3.26.09-3.6S8,86.26,8,85.88c0-.86-.22-6.64-.23-7.95a17.28,17.28,0,0,1,.27-2.06c.15-1.57,1.81-29.63,1.83-30.42a1.3,1.3,0,0,1,1.29-1.27C12,44.18,393.54,43.89,394.38,43.86Z"/></g></g></svg>