<svg id="Ebene_1" data-name="Ebene 1" xmlns="http://www.w3.org/2000/svg" xmlns:xlink="http://www.w3.org/1999/xlink" viewBox="0 0 2000 900"><defs><style>.cls-1,.cls-11,.cls-12,.cls-6{fill:none;}.cls-2{fill:#fff;}.cls-3{clip-path:url(#clip-path);}.cls-4{fill:#5a5a5a;}.cls-5{fill:#0080c5;}.cls-6{stroke:#666;}.cls-10,.cls-11,.cls-12,.cls-6{stroke-miterlimit:10;stroke-width:2.1px;}.cls-7{fill:#999;}.cls-8{fill:#ffc255;}.cls-10,.cls-9{fill:#a0daf7;}.cls-10,.cls-11{stroke:#5a5a5a;}.cls-12{stroke:#b3b3b3;}.cls-13{fill:#f9ff6b;}</style><clipPath id="clip-path"><path class="cls-1" d="M936.94,735.93c2.65-.12,3.54,1.06,3.54,3.65,0,2.18-.21,91.72-.21,94.15,0,2.1-1.34,2.65-3.49,3.46s-17.61,3.8-18.82,4a21.3,21.3,0,0,1-3.32.37l-86.69.09c-1.38,0-2.6-.92-2.6-3.3,0-6.57-5.25-15-12.32-19.06a24.39,24.39,0,0,0-28.07,3.25c-5,4.56-7.19,11.75-8.5,15.26-.79,2.1-1.87,3.38-5,3.46l-244.27.4c-1.38,0-2.6-.92-2.6-3.3,0-6.57-5.25-15-12.32-19.06a24.39,24.39,0,0,0-28.07,3.25c-5,4.56-7.19,11.75-8.5,15.26-.79,2.1-1.87,3.38-5,3.46l-205.43.4c-1.38,0-2.6-.92-2.6-3.3,0-6.57-5.25-15-12.32-19.06a24.39,24.39,0,0,0-28.07,3.25c-5,4.56-7.19,11.75-8.5,15.26-.79,2.1-1.87,3.38-5,3.46-3.48.08-76.54.64-79.77.61-2.23,0-3.93-1-3.72-3.41.1-1.16.2-6.84.2-7.56s.14-5.92.1-6.71c-.08-1.81-.47-13.94-.48-16.69a36.28,36.28,0,0,1,.56-4.33c.31-3.31,3.81-62.21,3.85-63.88a2.72,2.72,0,0,1,2.72-2.67C134,736.61,935.16,736,936.94,735.93Z"/></clipPath></defs><title>Zeichenfläche 1</title><path class="cls-2" d="M936.94,735.93c2.65-.12,3.54,1.06,3.54,3.65,0,2.18-.21,91.72-.21,94.15,0,2.1-1.34,2.65-3.49,3.46s-17.61,3.8-18.82,4a21.3,21.3,0,0,1-3.32.37l-86.69.09c-1.38,0-2.6-.92-2.6-3.3,0-6.57-5.25-15-12.32-19.06a24.39,24.39,0,0,0-28.07,3.25c-5,4.56-7.19,11.75-8.5,15.26-.79,2.1-1.87,3.38-5,3.46l-244.27.4c-1.38,0-2.6-.92-2.6-3.3,0-6.57-5.25-15-12.32-19.06a24.39,24.39,0,0,0-28.07,3.25c-5,4.56-7.19,11.75-8.5,15.26-.79,2.1-1.87,3.38-5,3.46l-205.43.4c-1.38,0-2.6-.92-2.6-3.3,0-6.57-5.25-15-12.32-19.06a24.39,24.39,0,0,0-28.07,3.25c-5,4.56-7.19,11.75-8.5,15.26-.79,2.1-1.87,3.38-5,3.46-3.48.08-76.54.64-79.77.61-2.23,0-3.93-1-3.72-3.41.1-1.16.2-6.84.2-7.56s.14-5.92.1-6.71c-.08-1.81-.47-13.94-.48-16.69a36.28,36.28,0,0,1,.56-4.33c.31-3.31,3.81-62.21,3.85-63.88a2.72,2.72,0,0,1,2.72-2.67C134,736.61,935.16,736,936.94,735.93Z"/><g class="cls-3"><rect class="cls-4" x="116.82" y="746.87" width="422.42" height="63.79"/><rect class="cls-4" x="612.13" y="746.87" width="338" height="63.79"/><rect class="cls-5" x="108.73" y="825.77" width="430.33" height="31.5"/><rect class="cls-5" x="612.14" y="825.77" width="334.67" height="31.5"/></g><circle class="cls-4" cx="238.45" cy="840.77" r="20.24"/><circle class="cls-4" cx="500.37" cy="840.77" r="20.24"/><circle class="cls-4" cx="801.13" cy="840.77" r="20.24"/><path class="cls-6" d="M689.56,719.68s162.35-55,171.19-58.16c6.83-2.47,9.51-3.53,9.51-14.12v-3.57"/><rect class="cls-2" x="662.1" y="713.58" width="61.05" height="9.66" rx="1.72" ry="1.72" transform="translate(-197.06 266.4) rotate(-19.11)"/><path class="cls-2" d="M132.51,736.71s15.61-14.66,52.19-15.09c6.11-.07,71.63-.52,78.24-.75,0,0,663.08.23,669.69,0,6.91-.24,6.38,2.63,6.38,5.63v10.66"/><circle class="cls-7" cx="238.45" cy="840.77" r="9.67"/><circle class="cls-7" cx="500.37" cy="840.77" r="9.67"/><circle class="cls-7" cx="801.13" cy="840.77" r="9.67"/><circle class="cls-8" cx="133.13" cy="817.28" r="3.49"/><path class="cls-9" d="M128.71,753.26h2c1.77,0,2.39,1.32,2.39,3.29v41.64c0,2.3-2.8,4.93-6.58,4.93h-.83"/><rect class="cls-10" x="141.32" y="750.82" width="51.52" height="44.79" rx="1.72" ry="1.72"/><rect class="cls-10" x="221.82" y="750.82" width="43.78" height="56.1" rx="1.72" ry="1.72"/><rect class="cls-2" x="309.5" y="706.46" width="39.02" height="14.43" rx="1.72" ry="1.72"/><rect class="cls-2" x="353.16" y="706.46" width="131.89" height="14.43" rx="1.72" ry="1.72"/><rect class="cls-2" x="497.1" y="710.63" width="25.93" height="10.26" rx="1.72" ry="1.72"/><rect class="cls-2" x="632.68" y="706.46" width="31.28" height="14.43" rx="1.72" ry="1.72"/><rect class="cls-4" x="246.23" y="750.82" width="19.38" height="17.4" rx="1.72" ry="1.72"/><rect class="cls-10" x="624.8" y="750.82" width="58.07" height="56.1" rx="1.72" ry="1.72"/><rect class="cls-10" x="687.92" y="750.82" width="58.07" height="56.1" rx="1.72" ry="1.72"/><rect class="cls-10" x="751.03" y="750.82" width="58.07" height="56.1" rx="1.72" ry="1.72"/><rect class="cls-10" x="814.15" y="750.82" width="58.07" height="56.1" rx="1.72" ry="1.72"/><rect class="cls-10" x="877.26" y="750.82" width="58.07" height="56.1" rx="1.72" ry="1.72"/><line class="cls-11" x1="157.25" y1="750.96" x2="157.25" y2="795.67"/><line class="cls-11" x1="176.06" y1="750.96" x2="176.06" y2="795.67"/><line class="cls-12" x1="543.51" y1="720.58" x2="543.51" y2="842.1"/><line class="cls-12" x1="547.78" y1="720.58" x2="547.78" y2="842.1"/><line class="cls-12" x1="552.06" y1="720.58" x2="552.06" y2="842.1"/><line class="cls-12" x1="556.33" y1="720.58" x2="556.33" y2="842.1"/><line class="cls-12" x1="560.61" y1="720.58" x2="560.61" y2="842.1"/><line class="cls-12" x1="564.88" y1="720.58" x2="564.88" y2="842.1"/><line class="cls-12" x1="569.16" y1="720.58" x2="569.16" y2="842.1"/><line class="cls-12" x1="573.43" y1="720.58" x2="573.43" y2="842.1"/><line class="cls-12" x1="577.71" y1="720.58" x2="577.71" y2="842.1"/><line class="cls-12" x1="581.98" y1="720.58" x2="581.98" y2="842.1"/><line class="cls-12" x1="586.26" y1="720.58" x2="586.26" y2="842.1"/><line class="cls-12" x1="590.53" y1="720.58" x2="590.53" y2="842.1"/><line class="cls-12" x1="594.8" y1="720.58" x2="594.8" y2="842.1"/><line class="cls-12" x1="599.08" y1="720.58" x2="599.08" y2="842.1"/><line class="cls-12" x1="603.35" y1="720.58" x2="603.35" y2="842.1"/><line class="cls-12" x1="607.63" y1="720.58" x2="607.63" y2="842.1"/><path class="cls-13" d="M254.89,761a3.38,3.38,0,0,1-.22,1.21,2.47,2.47,0,0,1-1,1.21,2.91,2.91,0,0,1-1.61.43,2.86,2.86,0,0,1-1.62-.46,2.55,2.55,0,0,1-1-1.25,3.44,3.44,0,0,1-.19-1,.18.18,0,0,1,.21-.21h1.31a.2.2,0,0,1,.22.21,1.82,1.82,0,0,0,.12.53,1,1,0,0,0,.36.49,1,1,0,0,0,.59.18.93.93,0,0,0,.93-.59,2,2,0,0,0,.17-.85A2.16,2.16,0,0,0,253,760a.93.93,0,0,0-.92-.57,1.08,1.08,0,0,0-.56.23l-.12,0a.22.22,0,0,1-.17-.09l-.64-.86a.22.22,0,0,1,0-.15.21.21,0,0,1,.07-.14l1.89-1.64s0,0,0-.05a.06.06,0,0,0-.06,0h-2.8a.18.18,0,0,1-.21-.21v-1.05a.18.18,0,0,1,.21-.21h4.92a.18.18,0,0,1,.21.21v1.19a.35.35,0,0,1-.11.25l-1.59,1.44s0,.08,0,.1a2,2,0,0,1,1.51,1.25A3.21,3.21,0,0,1,254.89,761Z"/><path class="cls-13" d="M256,763.58v-1a.38.38,0,0,1,.11-.25q.5-.5,1.05-1.11l.75-.82c.37-.42.65-.73.83-.92a3.5,3.5,0,0,0,1.1-1.81.9.9,0,0,0-.3-.7,1.27,1.27,0,0,0-1.57,0,.92.92,0,0,0-.3.72v.24a.18.18,0,0,1-.21.21h-1.31a.18.18,0,0,1-.21-.21v-.51a2.08,2.08,0,0,1,.41-1.16,2.39,2.39,0,0,1,1-.77,3.53,3.53,0,0,1,1.4-.27,3.28,3.28,0,0,1,1.49.32,2.41,2.41,0,0,1,1,.87,2.21,2.21,0,0,1,.34,1.21,2.39,2.39,0,0,1-.25,1,5.79,5.79,0,0,1-.76,1.15q-.49.59-1.67,1.83l-.57.6s0,0,0,.05a.06.06,0,0,0,.06,0h3.17a.18.18,0,0,1,.21.21v1.05a.18.18,0,0,1-.21.21h-5.32A.18.18,0,0,1,256,763.58Z"/><rect class="cls-10" x="278.91" y="750.82" width="58.07" height="56.1" rx="1.72" ry="1.72"/><rect class="cls-10" x="342.02" y="750.82" width="58.07" height="56.1" rx="1.72" ry="1.72"/><rect class="cls-10" x="405.13" y="750.82" width="58.07" height="56.1" rx="1.72" ry="1.72"/><rect class="cls-10" x="468.25" y="750.82" width="58.07" height="56.1" rx="1.72" ry="1.72"/><path class="cls-1" d="M936.94,735.93c2.65-.12,3.54,1.06,3.54,3.65,0,2.18-.21,91.72-.21,94.15,0,2.1-1.34,2.65-3.49,3.46s-17.61,3.8-18.82,4a21.3,21.3,0,0,1-3.32.37l-86.69.09c-1.38,0-2.6-.92-2.6-3.3,0-6.57-5.25-15-12.32-19.06a24.39,24.39,0,0,0-28.07,3.25c-5,4.56-7.19,11.75-8.5,15.26-.79,2.1-1.87,3.38-5,3.46l-244.27.4c-1.38,0-2.6-.92-2.6-3.3,0-6.57-5.25-15-12.32-19.06a24.39,24.39,0,0,0-28.07,3.25c-5,4.56-7.19,11.75-8.5,15.26-.79,2.1-1.87,3.38-5,3.46l-205.43.4c-1.38,0-2.6-.92-2.6-3.3,0-6.57-5.25-15-12.32-19.06a24.39,24.39,0,0,0-28.07,3.25c-5,4.56-7.19,11.75-8.5,15.26-.79,2.1-1.87,3.38-5,3.46-3.48.08-76.54.64-79.77.61-2.23,0-3.93-1-3.72-3.41.1-1.16.2-6.84.2-7.56s.14-5.92.1-6.71c-.08-1.81-.47-13.94-.48-16.69a36.28,36.28,0,0,1,.56-4.33c.31-3.31,3.81-62.21,3.85-63.88a2.72,2.72,0,0,1,2.72-2.67C134,736.61,935.16,736,936.94,735.93Z"/></svg>