<?xml version="1.0" encoding="utf-8"?>
<!-- Generator: Adobe Illustrator 21.1.0, SVG Export Plug-In . SVG Version: 6.00 Build 0)  -->
<svg version="1.1" id="Ebene_1" xmlns="http://www.w3.org/2000/svg" xmlns:xlink="http://www.w3.org/1999/xlink" x="0px" y="0px"
	 viewBox="0 0 1260 1700" style="enable-background:new 0 0 1260 1700;" xml:space="preserve">
<style type="text/css">
	.st0{fill:#C8E8FB;}
	.st1{fill:#B3B3B3;stroke:#B3B3B3;stroke-width:2;stroke-miterlimit:10;}
	.st2{fill:#999999;stroke:#999999;stroke-width:2;stroke-miterlimit:10;}
	.st3{fill:none;stroke:#666666;stroke-width:2;stroke-miterlimit:10;}
	.st4{fill:none;stroke:#666666;stroke-miterlimit:10;}
	.st5{fill:#FFFFFF;}
	.st6{fill:#0080C5;}
	.st7{fill:none;stroke:#A5A5A5;stroke-width:3.6;stroke-miterlimit:10;}
	.st8{fill:#F2F2F2;stroke:#F2F2F2;stroke-width:4;stroke-miterlimit:10;}
	.st9{fill:none;stroke:#B3B3B3;stroke-width:3;stroke-miterlimit:10;}
	.st10{fill:#F2F2F2;}
	.st11{font-family:'Barlow-Bold';}
	.st12{font-size:22px;}
</style>
<title>Zeichenfläche 1</title>
<rect y="794.6" class="st0" width="1260" height="905.4"/>
<path class="st1" d="M182.9,825.2c0,0,0.1-292.6-0.9-315.5c0,0-1.7-3.6-7.4-3.6s-6.8,3.6-6.8,3.6c-1,22.9-0.9,315.5-0.9,315.5
	s0.2,3.3,8,3.3S182.9,825.2,182.9,825.2z"/>
<path class="st2" d="M178.7,508.1c0,0,0.1-7.4-0.4-18.4c0,0-0.8-1.7-3.5-1.7s-3.3,1.7-3.3,1.7c-0.5,11-0.4,18.4-0.4,18.4
	s0.1,1.6,3.8,1.6S178.7,508.1,178.7,508.1z"/>
<line class="st3" x1="174.9" y1="619.2" x2="174.9" y2="644.1"/>
<path class="st1" d="M199.1,489.5c0,0.2-0.6,0.4-1.4,0.4H152c-0.8,0-1.4-0.2-1.4-0.4v-11.8c0-0.2,0.6-0.4,1.4-0.4h45.7
	c0.8,0,1.4,0.2,1.4,0.4L199.1,489.5z"/>
<path class="st1" d="M1088.9,825.2c0,0,0.2-292.6-0.9-315.5c0,0-1.7-3.6-7.4-3.6s-6.8,3.6-6.8,3.6c-1,22.9-0.9,315.5-0.9,315.5
	s0.2,3.3,8,3.3S1088.9,825.2,1088.9,825.2z"/>
<path class="st2" d="M1084.7,508.1c0,0,0.1-7.4-0.4-18.4c0,0-0.8-1.7-3.5-1.7s-3.3,1.7-3.3,1.7c-0.5,11-0.4,18.4-0.4,18.4
	s0.1,1.6,3.8,1.6S1084.7,508.1,1084.7,508.1z"/>
<line class="st3" x1="1080.9" y1="619.2" x2="1080.9" y2="644.1"/>
<path class="st1" d="M1105.1,489.5c0,0.2-0.6,0.4-1.4,0.4H1058c-0.8,0-1.4-0.2-1.4-0.4v-11.8c0-0.2,0.6-0.4,1.4-0.4h45.7
	c0.8,0,1.4,0.2,1.4,0.4V489.5z"/>
<line class="st4" x1="-0.2" y1="644" x2="1260" y2="644"/>
<rect x="86.7" y="676.1" class="st5" width="55.4" height="35.6"/>
<rect x="86.7" y="676.1" class="st6" width="55.5" height="18.8"/>
<path class="st7" d="M95.1,827V725.5c0-2.2,1.8-4,4-4h39c2.2,0,4-1.8,4-4V670c0-2.2-1.8-4-4-4H90.8c-2.2,0-4,1.8-4,4v157"/>
<path class="st8" d="M1059.1,698.7c0,0.5-0.4,0.8-0.8,0.8H932.2c-2.1-0.1-4.1-0.8-5.8-2.1c-1.5-0.9-16.8-11.2-16.8-11.2
	c-0.7-0.4-1-1.2-0.6-2c0.1-0.3,0.4-0.5,0.6-0.6c0,0,15.3-10.3,16.8-11.2c1.6-1.3,3.7-2,5.8-2.1h126c0.5,0,0.8,0.4,0.8,0.8
	L1059.1,698.7z"/>
<path class="st6" d="M1059.1,698.7c0,0.5-0.4,0.8-0.8,0.8H932.2c-2.1-0.1-4.1-0.8-5.8-2.1c-1.5-0.9-12.6-11.2-12.6-11.2
	c-0.7-0.4-1-1.2-0.6-2c0.1-0.3,0.4-0.5,0.6-0.6c0,0,11.1-10.3,12.6-11.2c1.6-1.3,3.7-2,5.8-2.1h126c0.5,0,0.8,0.4,0.8,0.8
	L1059.1,698.7z"/>
<path class="st9" d="M1058.1,665.9H931.7c-3.6,0-5.6,1.5-7.5,2.7c-1.5,0.9-14.8,9.9-17.5,11.8c-2.5,1.8-3.1,5.3-1.3,7.8
	c0.3,0.5,0.7,0.9,1.2,1.2c1.8,1.2,16.2,10.9,17.7,11.8c1.9,1.2,4,2.7,7.5,2.7h126.4c2.7,0,5.3-2.2,5.3-4.6v-28.8
	C1063.5,668.2,1060.8,665.9,1058.1,665.9z"/>
<line class="st9" x1="1063.2" y1="675.4" x2="1072.3" y2="675.4"/>
<line class="st9" x1="1063.2" y1="694.4" x2="1072.3" y2="694.4"/>
<text transform="matrix(1 0 0 1 931.23 692.62)" class="st10 st11 st12">Limm</text>
<text transform="matrix(1 0 0 1 985.88 692.62)" class="st10 st11 st12">a</text>
<text transform="matrix(1 0 0 1 997.19 692.62)" class="st10 st11 st12">tpl</text>
<text transform="matrix(1 0 0 1 1022.97 692.62)" class="st10 st11 st12">a</text>
<text transform="matrix(1 0 0 1 1034.28 692.62)" class="st10 st11 st12">tz</text>
</svg>
