<svg id="Ebene_1" data-name="Ebene 1" xmlns="http://www.w3.org/2000/svg" viewBox="0 0 1260 900"><defs><style>.cls-1{fill:none;stroke:#666;}.cls-1,.cls-2,.cls-3{stroke-miterlimit:10;}.cls-2{fill:#b3b3b3;stroke:#b3b3b3;}.cls-2,.cls-3{stroke-width:2px;}.cls-3{fill:#999;stroke:#999;}</style></defs><title>Zeichenfläche 1</title><line class="cls-1" x1="-78" y1="591.3" x2="1434" y2="591.3"/><path class="cls-2" d="M1211.27,497.32c0,.25-.77.46-1.72.46h-54.79c-.95,0-1.72-.2-1.72-.46V483.11c0-.25.77-.46,1.72-.46h54.79c.95,0,1.72.2,1.72.46Z"/><path class="cls-3" d="M1186.74,519.65s.1-8.92-.5-22.09c0,0-1-2-4.25-2s-3.92,2-3.92,2c-.6,13.2-.5,22.09-.5,22.09s.13,1.91,4.61,1.91S1186.74,519.65,1186.74,519.65Z"/><path class="cls-2" d="M1191.74,900.2s.2-351.13-1-378.65c0,0-2-4.27-8.88-4.27s-8.2,4.27-8.2,4.27c-1.2,27.52-1,378.65-1,378.65s.26,4,9.6,4S1191.74,900.2,1191.74,900.2Z"/></svg>