<svg id="Ebene_1" data-name="Ebene 1" xmlns="http://www.w3.org/2000/svg" viewBox="0 0 1260 825"><defs><style>.cls-1{fill:#b3b3b3;stroke:#b3b3b3;}.cls-1,.cls-2,.cls-3,.cls-4,.cls-7{stroke-miterlimit:10;}.cls-1,.cls-2,.cls-3{stroke-width:2px;}.cls-2{fill:#999;stroke:#999;}.cls-3,.cls-4,.cls-7{fill:none;}.cls-3,.cls-4{stroke:#666;}.cls-5{fill:#fff;}.cls-6{fill:#0080c5;}.cls-7{stroke:#a5a5a5;stroke-width:3.6px;}</style></defs><title>Zeichenfläche 1</title><path class="cls-1" d="M182.87,825.25S183,532.64,182,509.71c0,0-1.68-3.56-7.4-3.56s-6.83,3.56-6.83,3.56c-1,22.93-.87,315.54-.87,315.54s.22,3.31,8,3.31S182.87,825.25,182.87,825.25Z"/><path class="cls-2" d="M178.7,508.13s.08-7.43-.42-18.41c0,0-.8-1.7-3.54-1.7s-3.27,1.7-3.27,1.7c-.5,11-.42,18.41-.42,18.41s.11,1.59,3.84,1.59S178.7,508.13,178.7,508.13Z"/><line class="cls-3" x1="174.88" y1="619.24" x2="174.88" y2="644.11"/><path class="cls-1" d="M199.14,489.47c0,.21-.64.38-1.43.38H152c-.79,0-1.43-.17-1.43-.38V477.68c0-.21.64-.38,1.43-.38h45.66c.79,0,1.43.17,1.43.38Z"/><path class="cls-1" d="M1088.87,825.25s.17-292.61-.87-315.54c0,0-1.68-3.56-7.4-3.56s-6.83,3.56-6.83,3.56c-1,22.93-.87,315.54-.87,315.54s.22,3.31,8,3.31S1088.87,825.25,1088.87,825.25Z"/><path class="cls-2" d="M1084.7,508.13s.08-7.43-.42-18.41c0,0-.8-1.7-3.54-1.7s-3.27,1.7-3.27,1.7c-.5,11-.42,18.41-.42,18.41s.11,1.59,3.84,1.59S1084.7,508.13,1084.7,508.13Z"/><line class="cls-3" x1="1080.88" y1="619.24" x2="1080.88" y2="644.11"/><path class="cls-1" d="M1105.14,489.47c0,.21-.64.38-1.43.38H1058c-.79,0-1.43-.17-1.43-.38V477.68c0-.21.64-.38,1.43-.38h45.66c.79,0,1.43.17,1.43.38Z"/><line class="cls-4" x1="-0.19" y1="644" x2="1259.96" y2="644"/><rect class="cls-5" x="86.74" y="676.11" width="55.41" height="35.57"/><rect class="cls-6" x="86.74" y="676.11" width="55.49" height="18.83"/><path class="cls-7" d="M95.07,827V725.48a4,4,0,0,1,4-4h39a4,4,0,0,0,4-4V670a4,4,0,0,0-4-4H90.77a4,4,0,0,0-4,4V827"/></svg>