<?xml version="1.0" encoding="utf-8"?>
<!-- Generator: Adobe Illustrator 21.1.0, SVG Export Plug-In . SVG Version: 6.00 Build 0)  -->
<svg version="1.1" id="Ebene_1" xmlns="http://www.w3.org/2000/svg" xmlns:xlink="http://www.w3.org/1999/xlink" x="0px" y="0px"
	 viewBox="0 0 1260 1700" style="enable-background:new 0 0 1260 1700;" xml:space="preserve">
<style type="text/css">
	.st0{fill:#C8E8FB;}
	.st1{fill:#B3B3B3;stroke:#B3B3B3;stroke-width:2;stroke-miterlimit:10;}
	.st2{fill:#999999;stroke:#999999;stroke-width:2;stroke-miterlimit:10;}
	.st3{fill:none;stroke:#666666;stroke-width:2;stroke-miterlimit:10;}
	.st4{fill:none;stroke:#666666;stroke-miterlimit:10;}
	.st5{fill:#FFFFFF;}
	.st6{fill:#0080C5;}
	.st7{fill:none;stroke:#A5A5A5;stroke-width:3.6;stroke-miterlimit:10;}
	.st8{fill:#F2F2F2;stroke:#F2F2F2;stroke-width:4;stroke-miterlimit:10;}
	.st9{fill:none;stroke:#B3B3B3;stroke-width:3;stroke-miterlimit:10;}
	.st10{enable-background:new    ;}
	.st11{fill:#F2F2F2;}
</style>
<title>Zeichenfläche 1</title>
<rect y="794.6" class="st0" width="1260" height="905.4"/>
<path class="st1" d="M182.9,825.2c0,0,0.1-292.6-0.9-315.5c0,0-1.7-3.6-7.4-3.6s-6.8,3.6-6.8,3.6c-1,22.9-0.9,315.5-0.9,315.5
	s0.2,3.3,8,3.3S182.9,825.2,182.9,825.2z"/>
<path class="st2" d="M178.7,508.1c0,0,0.1-7.4-0.4-18.4c0,0-0.8-1.7-3.5-1.7s-3.3,1.7-3.3,1.7c-0.5,11-0.4,18.4-0.4,18.4
	s0.1,1.6,3.8,1.6S178.7,508.1,178.7,508.1z"/>
<line class="st3" x1="174.9" y1="619.2" x2="174.9" y2="644.1"/>
<path class="st1" d="M199.1,489.5c0,0.2-0.6,0.4-1.4,0.4H152c-0.8,0-1.4-0.2-1.4-0.4v-11.8c0-0.2,0.6-0.4,1.4-0.4h45.7
	c0.8,0,1.4,0.2,1.4,0.4L199.1,489.5z"/>
<path class="st1" d="M1088.9,825.2c0,0,0.2-292.6-0.9-315.5c0,0-1.7-3.6-7.4-3.6s-6.8,3.6-6.8,3.6c-1,22.9-0.9,315.5-0.9,315.5
	s0.2,3.3,8,3.3S1088.9,825.2,1088.9,825.2z"/>
<path class="st2" d="M1084.7,508.1c0,0,0.1-7.4-0.4-18.4c0,0-0.8-1.7-3.5-1.7s-3.3,1.7-3.3,1.7c-0.5,11-0.4,18.4-0.4,18.4
	s0.1,1.6,3.8,1.6S1084.7,508.1,1084.7,508.1z"/>
<line class="st3" x1="1080.9" y1="619.2" x2="1080.9" y2="644.1"/>
<path class="st1" d="M1105.1,489.5c0,0.2-0.6,0.4-1.4,0.4H1058c-0.8,0-1.4-0.2-1.4-0.4v-11.8c0-0.2,0.6-0.4,1.4-0.4h45.7
	c0.8,0,1.4,0.2,1.4,0.4V489.5z"/>
<line class="st4" x1="-0.2" y1="644" x2="1260" y2="644"/>
<rect x="86.7" y="676.1" class="st5" width="55.4" height="35.6"/>
<rect x="86.7" y="676.1" class="st6" width="55.5" height="18.8"/>
<path class="st7" d="M95.1,827V725.5c0-2.2,1.8-4,4-4h39c2.2,0,4-1.8,4-4V670c0-2.2-1.8-4-4-4H90.8c-2.2,0-4,1.8-4,4v157"/>
<path class="st8" d="M1059.1,698.7c0,0.5-0.4,0.8-0.8,0.8H932.2c-2.1-0.1-4.1-0.8-5.8-2.1c-1.5-0.9-16.8-11.2-16.8-11.2
	c-0.7-0.4-1-1.2-0.6-2c0.1-0.3,0.4-0.5,0.6-0.6c0,0,15.3-10.3,16.8-11.2c1.6-1.3,3.7-2,5.8-2.1h126c0.5,0,0.8,0.4,0.8,0.8
	L1059.1,698.7z"/>
<path class="st6" d="M1059.1,698.7c0,0.5-0.4,0.8-0.8,0.8H932.2c-2.1-0.1-4.1-0.8-5.8-2.1c-1.5-0.9-12.6-11.2-12.6-11.2
	c-0.7-0.4-1-1.2-0.6-2c0.1-0.3,0.4-0.5,0.6-0.6c0,0,11.1-10.3,12.6-11.2c1.6-1.3,3.7-2,5.8-2.1h126c0.5,0,0.8,0.4,0.8,0.8
	L1059.1,698.7z"/>
<path class="st9" d="M1058.1,665.9H931.7c-3.6,0-5.6,1.5-7.5,2.7c-1.5,0.9-14.8,9.9-17.5,11.8c-2.5,1.8-3.1,5.3-1.3,7.8
	c0.3,0.5,0.7,0.9,1.2,1.2c1.8,1.2,16.2,10.9,17.7,11.8c1.9,1.2,4,2.7,7.5,2.7h126.4c2.7,0,5.3-2.2,5.3-4.6v-28.8
	C1063.5,668.2,1060.8,665.9,1058.1,665.9z"/>
<line class="st9" x1="1063.2" y1="675.4" x2="1072.3" y2="675.4"/>
<line class="st9" x1="1063.2" y1="694.4" x2="1072.3" y2="694.4"/>
<g class="st10">
	<path class="st11" d="M932.6,692.2v-14.7c0-0.2,0.1-0.4,0.4-0.4h2.4c0.2,0,0.4,0.1,0.4,0.4v12.2c0,0.1,0,0.1,0.1,0.1h7.1
		c0.2,0,0.4,0.1,0.4,0.4v1.9c0,0.2-0.1,0.4-0.4,0.4h-9.9C932.7,692.6,932.6,692.5,932.6,692.2z"/>
	<path class="st11" d="M945.3,679.7c-0.4-0.3-0.5-0.8-0.5-1.3c0-0.5,0.2-1,0.5-1.3c0.4-0.3,0.8-0.5,1.4-0.5c0.6,0,1,0.2,1.4,0.5
		c0.3,0.3,0.5,0.8,0.5,1.3c0,0.6-0.2,1-0.5,1.3c-0.3,0.3-0.8,0.5-1.4,0.5C946.1,680.2,945.7,680.1,945.3,679.7z M945.1,692.2v-10.6
		c0-0.2,0.1-0.4,0.4-0.4h2.4c0.2,0,0.4,0.1,0.4,0.4v10.6c0,0.2-0.1,0.4-0.4,0.4h-2.4C945.3,692.6,945.1,692.5,945.1,692.2z"/>
	<path class="st11" d="M965.9,682.2c0.6,0.7,1,1.7,1,2.9v7.2c0,0.2-0.1,0.4-0.4,0.4h-2.4c-0.2,0-0.4-0.1-0.4-0.4v-6.5
		c0-0.6-0.2-1.1-0.5-1.4c-0.3-0.4-0.7-0.5-1.2-0.5c-0.5,0-0.9,0.2-1.3,0.5c-0.3,0.4-0.5,0.8-0.5,1.4v6.5c0,0.2-0.1,0.4-0.4,0.4h-2.3
		c-0.2,0-0.4-0.1-0.4-0.4v-6.5c0-0.6-0.2-1.1-0.5-1.4s-0.7-0.5-1.3-0.5c-0.5,0-0.9,0.1-1.2,0.4c-0.3,0.3-0.5,0.7-0.6,1.2v6.9
		c0,0.2-0.1,0.4-0.4,0.4h-2.4c-0.2,0-0.4-0.1-0.4-0.4v-10.6c0-0.2,0.1-0.4,0.4-0.4h2.4c0.2,0,0.4,0.1,0.4,0.4v0.7
		c0,0.1,0,0.1,0.1,0.1c0,0,0.1,0,0.1-0.1c0.6-0.9,1.5-1.3,2.8-1.3c0.7,0,1.4,0.2,1.9,0.5c0.5,0.3,1,0.7,1.3,1.3c0,0.1,0,0.1,0.1,0.1
		c0,0,0.1,0,0.1-0.1c0.3-0.6,0.8-1,1.3-1.3c0.5-0.3,1.2-0.4,1.8-0.4C964.4,681.1,965.3,681.5,965.9,682.2z"/>
	<path class="st11" d="M984.3,682.2c0.6,0.7,1,1.7,1,2.9v7.2c0,0.2-0.1,0.4-0.4,0.4h-2.4c-0.2,0-0.4-0.1-0.4-0.4v-6.5
		c0-0.6-0.2-1.1-0.5-1.4c-0.3-0.4-0.7-0.5-1.2-0.5s-0.9,0.2-1.3,0.5c-0.3,0.4-0.5,0.8-0.5,1.4v6.5c0,0.2-0.1,0.4-0.4,0.4H976
		c-0.2,0-0.4-0.1-0.4-0.4v-6.5c0-0.6-0.2-1.1-0.5-1.4c-0.3-0.4-0.7-0.5-1.3-0.5c-0.5,0-0.9,0.1-1.2,0.4c-0.3,0.3-0.5,0.7-0.6,1.2
		v6.9c0,0.2-0.1,0.4-0.4,0.4h-2.4c-0.2,0-0.4-0.1-0.4-0.4v-10.6c0-0.2,0.1-0.4,0.4-0.4h2.4c0.2,0,0.4,0.1,0.4,0.4v0.7
		c0,0.1,0,0.1,0.1,0.1s0.1,0,0.1-0.1c0.6-0.9,1.5-1.3,2.8-1.3c0.7,0,1.4,0.2,1.9,0.5c0.5,0.3,1,0.7,1.3,1.3c0,0.1,0,0.1,0.1,0.1
		c0,0,0.1,0,0.1-0.1c0.3-0.6,0.8-1,1.3-1.3c0.5-0.3,1.2-0.4,1.8-0.4C982.7,681.1,983.6,681.5,984.3,682.2z"/>
</g>
<g class="st10">
	<path class="st11" d="M994.1,681.6c0.7,0.3,1.3,0.8,1.7,1.4c0.4,0.6,0.6,1.2,0.6,1.9v7.3c0,0.2-0.1,0.4-0.4,0.4h-2.4
		c-0.2,0-0.4-0.1-0.4-0.4v-0.5c0-0.1,0-0.1,0-0.1c0,0-0.1,0-0.1,0.1c-0.7,0.7-1.7,1.1-3,1.1c-1.1,0-2-0.3-2.7-0.8
		c-0.7-0.6-1-1.4-1-2.5c0-1.1,0.4-2,1.2-2.6s1.9-0.9,3.4-0.9h2.2c0.1,0,0.1,0,0.1-0.1v-0.5c0-0.5-0.2-0.9-0.5-1.1s-0.7-0.4-1.3-0.4
		c-0.4,0-0.8,0.1-1.1,0.2s-0.5,0.4-0.6,0.6c-0.1,0.2-0.2,0.3-0.4,0.3l-2.4-0.3c-0.1,0-0.2,0-0.3-0.1c-0.1-0.1-0.1-0.1-0.1-0.2
		c0.1-0.6,0.3-1.1,0.8-1.6c0.4-0.5,1-0.9,1.7-1.1c0.7-0.3,1.5-0.4,2.4-0.4C992.5,681.1,993.4,681.3,994.1,681.6z M992.7,690
		c0.4-0.3,0.7-0.8,0.7-1.3v-0.8c0-0.1,0-0.1-0.1-0.1h-1.6c-0.7,0-1.2,0.1-1.6,0.4s-0.6,0.6-0.6,1.1c0,0.4,0.1,0.7,0.4,0.9
		s0.7,0.3,1.1,0.3C991.7,690.5,992.3,690.3,992.7,690z"/>
</g>
<g class="st10">
	<path class="st11" d="M1004.5,683.8h-2c-0.1,0-0.1,0-0.1,0.1v4.6c0,0.5,0.1,0.8,0.3,1.1c0.2,0.2,0.5,0.3,1,0.3h0.6
		c0.2,0,0.4,0.1,0.4,0.4v1.9c0,0.2-0.1,0.4-0.4,0.4c-0.6,0-1,0-1.2,0c-1.2,0-2.1-0.2-2.7-0.6c-0.6-0.4-0.9-1.2-0.9-2.3v-5.8
		c0-0.1,0-0.1-0.1-0.1h-1.1c-0.2,0-0.4-0.1-0.4-0.4v-1.7c0-0.2,0.1-0.4,0.4-0.4h1.1c0.1,0,0.1,0,0.1-0.1v-2.5c0-0.2,0.1-0.4,0.4-0.4
		h2.2c0.2,0,0.4,0.1,0.4,0.4v2.5c0,0.1,0,0.1,0.1,0.1h2c0.2,0,0.4,0.1,0.4,0.4v1.7C1004.8,683.7,1004.7,683.8,1004.5,683.8z"/>
	<path class="st11" d="M1017.2,687c0,1.1-0.1,2-0.4,2.7c-0.3,0.9-0.9,1.7-1.6,2.2s-1.6,0.8-2.6,0.8c-1.1,0-1.9-0.4-2.5-1.1
		c0,0-0.1-0.1-0.1,0c0,0-0.1,0.1-0.1,0.1v4.5c0,0.2-0.1,0.4-0.4,0.4h-2.4c-0.2,0-0.4-0.1-0.4-0.4v-14.7c0-0.2,0.1-0.4,0.4-0.4h2.4
		c0.2,0,0.4,0.1,0.4,0.4v0.6c0,0.1,0,0.1,0.1,0.1c0,0,0.1,0,0.1-0.1c0.6-0.8,1.4-1.2,2.5-1.2c1,0,1.9,0.3,2.7,0.9
		c0.8,0.6,1.3,1.4,1.6,2.3C1017.1,685.1,1017.2,686,1017.2,687z M1013.9,686.9c0-0.9-0.2-1.6-0.5-2.2c-0.4-0.6-0.9-0.9-1.6-0.9
		c-0.6,0-1.1,0.3-1.5,0.9c-0.3,0.5-0.4,1.3-0.4,2.2c0,1,0.2,1.7,0.5,2.3c0.4,0.6,0.9,0.9,1.5,0.9c0.7,0,1.2-0.3,1.5-0.8
		C1013.8,688.7,1013.9,687.9,1013.9,686.9z"/>
	<path class="st11" d="M1019,692.2v-14.7c0-0.2,0.1-0.4,0.4-0.4h2.4c0.2,0,0.4,0.1,0.4,0.4v14.7c0,0.2-0.1,0.4-0.4,0.4h-2.4
		C1019.2,692.6,1019,692.5,1019,692.2z"/>
</g>
<g class="st10">
	<path class="st11" d="M1031.2,681.6c0.7,0.3,1.3,0.8,1.7,1.4c0.4,0.6,0.6,1.2,0.6,1.9v7.3c0,0.2-0.1,0.4-0.4,0.4h-2.4
		c-0.2,0-0.4-0.1-0.4-0.4v-0.5c0-0.1,0-0.1,0-0.1c0,0-0.1,0-0.1,0.1c-0.7,0.7-1.7,1.1-3,1.1c-1.1,0-2-0.3-2.7-0.8
		c-0.7-0.6-1-1.4-1-2.5c0-1.1,0.4-2,1.2-2.6s1.9-0.9,3.4-0.9h2.2c0.1,0,0.1,0,0.1-0.1v-0.5c0-0.5-0.2-0.9-0.5-1.1s-0.7-0.4-1.3-0.4
		c-0.4,0-0.8,0.1-1.1,0.2s-0.5,0.4-0.6,0.6c-0.1,0.2-0.2,0.3-0.4,0.3l-2.4-0.3c-0.1,0-0.2,0-0.3-0.1c-0.1-0.1-0.1-0.1-0.1-0.2
		c0.1-0.6,0.3-1.1,0.8-1.6c0.4-0.5,1-0.9,1.7-1.1c0.7-0.3,1.5-0.4,2.4-0.4C1029.6,681.1,1030.5,681.3,1031.2,681.6z M1029.8,690
		c0.4-0.3,0.7-0.8,0.7-1.3v-0.8c0-0.1,0-0.1-0.1-0.1h-1.6c-0.7,0-1.2,0.1-1.6,0.4s-0.6,0.6-0.6,1.1c0,0.4,0.1,0.7,0.4,0.9
		s0.7,0.3,1.1,0.3C1028.8,690.5,1029.4,690.3,1029.8,690z"/>
</g>
<g class="st10">
	<path class="st11" d="M1041.5,683.8h-2c-0.1,0-0.1,0-0.1,0.1v4.6c0,0.5,0.1,0.8,0.3,1.1c0.2,0.2,0.5,0.3,1,0.3h0.6
		c0.2,0,0.4,0.1,0.4,0.4v1.9c0,0.2-0.1,0.4-0.4,0.4c-0.6,0-1,0-1.2,0c-1.2,0-2.1-0.2-2.7-0.6c-0.6-0.4-0.9-1.2-0.9-2.3v-5.8
		c0-0.1,0-0.1-0.1-0.1h-1.1c-0.2,0-0.4-0.1-0.4-0.4v-1.7c0-0.2,0.1-0.4,0.4-0.4h1.1c0.1,0,0.1,0,0.1-0.1v-2.5c0-0.2,0.1-0.4,0.4-0.4
		h2.2c0.2,0,0.4,0.1,0.4,0.4v2.5c0,0.1,0,0.1,0.1,0.1h2c0.2,0,0.4,0.1,0.4,0.4v1.7C1041.9,683.7,1041.8,683.8,1041.5,683.8z"/>
	<path class="st11" d="M1043.2,692.2v-2.2c0-0.2,0.1-0.3,0.2-0.5l4.9-5.3c0,0,0-0.1,0-0.1s0,0-0.1,0h-4.5c-0.2,0-0.4-0.1-0.4-0.4v-2
		c0-0.2,0.1-0.4,0.4-0.4h8c0.2,0,0.4,0.1,0.4,0.4v2.2c0,0.2-0.1,0.3-0.2,0.5l-5,5.3c0,0,0,0.1,0,0.1c0,0,0,0,0.1,0h4.9
		c0.2,0,0.4,0.1,0.4,0.4v2.1c0,0.2-0.1,0.4-0.4,0.4h-8.2C1043.3,692.6,1043.2,692.5,1043.2,692.2z"/>
</g>
</svg>
