<svg id="Ebene_1" data-name="Ebene 1" xmlns="http://www.w3.org/2000/svg" viewBox="0 0 2000 900"><defs><style>.cls-1{fill:#b3b3b3;stroke:#b3b3b3;}.cls-1,.cls-2,.cls-3,.cls-4,.cls-7{stroke-miterlimit:10;}.cls-1,.cls-2,.cls-3{stroke-width:2px;}.cls-2{fill:#999;stroke:#999;}.cls-3,.cls-4,.cls-7{fill:none;}.cls-3,.cls-4{stroke:#666;}.cls-5{fill:#fff;}.cls-6{fill:#0080c5;}.cls-7{stroke:#a5a5a5;stroke-width:3.6px;}</style></defs><title>Zeichenfläche 1</title><path class="cls-1" d="M92.87,900.25S93,607.64,92,584.71c0,0-1.68-3.56-7.4-3.56s-6.83,3.56-6.83,3.56c-1,22.93-.87,315.54-.87,315.54s.22,3.31,8,3.31S92.87,900.25,92.87,900.25Z"/><path class="cls-2" d="M88.7,583.13s.08-7.43-.42-18.41c0,0-.8-1.7-3.54-1.7s-3.27,1.7-3.27,1.7c-.5,11-.42,18.41-.42,18.41s.11,1.59,3.84,1.59S88.7,583.13,88.7,583.13Z"/><line class="cls-3" x1="84.88" y1="694.24" x2="84.88" y2="719.11"/><path class="cls-1" d="M109.14,564.47c0,.21-.64.38-1.43.38H62c-.79,0-1.43-.17-1.43-.38V552.68c0-.21.64-.38,1.43-.38h45.66c.79,0,1.43.17,1.43.38Z"/><path class="cls-1" d="M1001,900.25s.17-292.61-.87-315.54c0,0-1.68-3.56-7.4-3.56s-6.83,3.56-6.83,3.56c-1,22.93-.87,315.54-.87,315.54s.22,3.31,8,3.31S1001,900.25,1001,900.25Z"/><path class="cls-2" d="M996.86,583.13s.08-7.43-.42-18.41c0,0-.8-1.7-3.54-1.7s-3.27,1.7-3.27,1.7c-.5,11-.42,18.41-.42,18.41s.11,1.59,3.84,1.59S996.86,583.13,996.86,583.13Z"/><line class="cls-3" x1="993.04" y1="694.24" x2="993.04" y2="719.11"/><path class="cls-1" d="M1017.3,564.47c0,.21-.64.38-1.43.38H970.21c-.79,0-1.43-.17-1.43-.38V552.68c0-.21.64-.38,1.43-.38h45.66c.79,0,1.43.17,1.43.38Z"/><path class="cls-1" d="M1909.18,900.25s.17-292.61-.87-315.54c0,0-1.68-3.56-7.4-3.56s-6.83,3.56-6.83,3.56c-1,22.93-.87,315.54-.87,315.54s.22,3.31,8,3.31S1909.18,900.25,1909.18,900.25Z"/><path class="cls-2" d="M1905,583.13s.08-7.43-.42-18.41c0,0-.8-1.7-3.54-1.7s-3.27,1.7-3.27,1.7c-.5,11-.42,18.41-.42,18.41s.11,1.59,3.84,1.59S1905,583.13,1905,583.13Z"/><line class="cls-3" x1="1901.19" y1="694.24" x2="1901.19" y2="719.11"/><path class="cls-1" d="M1925.46,564.47c0,.21-.64.38-1.43.38h-45.66c-.79,0-1.43-.17-1.43-.38V552.68c0-.21.64-.38,1.43-.38H1924c.79,0,1.43.17,1.43.38Z"/><line class="cls-4" x1="83.89" y1="719" x2="2000.93" y2="719"/><rect class="cls-5" x="360.18" y="751.11" width="55.41" height="35.57"/><rect class="cls-6" x="360.18" y="751.11" width="55.49" height="18.83"/><path class="cls-7" d="M368.51,902V800.48a4,4,0,0,1,4-4h39a4,4,0,0,0,4-4V745a4,4,0,0,0-4-4H364.21a4,4,0,0,0-4,4V902"/></svg>