<svg id="Ebene_1" data-name="Ebene 1" xmlns="http://www.w3.org/2000/svg" viewBox="0 0 1260 1600"><defs><style>.cls-1{fill:#c8e8fb;}.cls-2{fill:#b3b3b3;}.cls-10,.cls-2{stroke:#b3b3b3;}.cls-10,.cls-2,.cls-3,.cls-4,.cls-5,.cls-8,.cls-9{stroke-miterlimit:10;}.cls-2,.cls-3,.cls-4{stroke-width:2px;}.cls-3{fill:#999;stroke:#999;}.cls-10,.cls-4,.cls-5,.cls-8{fill:none;}.cls-4,.cls-5{stroke:#666;}.cls-6{fill:#fff;}.cls-7{fill:#0080c5;}.cls-8{stroke:#a5a5a5;stroke-width:3.6px;}.cls-12,.cls-13,.cls-9{fill:#f2f2f2;}.cls-9{stroke:#f2f2f2;stroke-width:4px;}.cls-10{stroke-width:3px;}.cls-11,.cls-12,.cls-13{isolation:isolate;}.cls-12,.cls-13{font-size:22px;font-family:Barlow-Bold, Barlow;font-weight:700;}.cls-13{letter-spacing:-0.01em;}</style></defs><title>Zeichenfläche 1</title><rect class="cls-1" y="794.57" width="1259.96" height="805.43"/><path class="cls-2" d="M182.9,825.2s.1-292.6-.9-315.5c0,0-1.7-3.6-7.4-3.6s-6.8,3.6-6.8,3.6c-1,22.9-.9,315.5-.9,315.5s.2,3.3,8,3.3S182.9,825.2,182.9,825.2Z"/><path class="cls-3" d="M178.7,508.1s.1-7.4-.4-18.4c0,0-.8-1.7-3.5-1.7s-3.3,1.7-3.3,1.7c-.5,11-.4,18.4-.4,18.4s.1,1.6,3.8,1.6S178.7,508.1,178.7,508.1Z"/><line class="cls-4" x1="174.9" y1="619.2" x2="174.9" y2="644.1"/><path class="cls-2" d="M199.1,489.5c0,.2-.6.4-1.4.4H152c-.8,0-1.4-.2-1.4-.4V477.7c0-.2.6-.4,1.4-.4h45.7c.8,0,1.4.2,1.4.4Z"/><path class="cls-2" d="M1088.9,825.2s.2-292.6-.9-315.5c0,0-1.7-3.6-7.4-3.6s-6.8,3.6-6.8,3.6c-1,22.9-.9,315.5-.9,315.5s.2,3.3,8,3.3S1088.9,825.2,1088.9,825.2Z"/><path class="cls-3" d="M1084.7,508.1s.1-7.4-.4-18.4c0,0-.8-1.7-3.5-1.7s-3.3,1.7-3.3,1.7c-.5,11-.4,18.4-.4,18.4s.1,1.6,3.8,1.6S1084.7,508.1,1084.7,508.1Z"/><line class="cls-4" x1="1080.9" y1="619.2" x2="1080.9" y2="644.1"/><path class="cls-2" d="M1105.1,489.5c0,.2-.6.4-1.4.4H1058c-.8,0-1.4-.2-1.4-.4V477.7c0-.2.6-.4,1.4-.4h45.7c.8,0,1.4.2,1.4.4Z"/><line class="cls-5" x1="-0.2" y1="644" x2="1260" y2="644"/><rect class="cls-6" x="86.7" y="676.1" width="55.4" height="35.6"/><rect class="cls-7" x="86.7" y="676.1" width="55.5" height="18.8"/><path class="cls-8" d="M95.1,827V725.5a4,4,0,0,1,4-4h39a4,4,0,0,0,4-4V670a4,4,0,0,0-4-4H90.8a4,4,0,0,0-4,4V827"/><path class="cls-9" d="M1059.05,698.7a.82.82,0,0,1-.82.82H932.18a9.79,9.79,0,0,1-5.75-2.07c-1.48-.93-16.76-11.2-16.76-11.2a1.45,1.45,0,0,1,0-2.57s15.27-10.27,16.76-11.2a9.79,9.79,0,0,1,5.75-2.07h126.05a.82.82,0,0,1,.82.82Z"/><path class="cls-7" d="M1059.05,698.7a.82.82,0,0,1-.82.82H932.18a9.79,9.79,0,0,1-5.75-2.07c-1.48-.93-12.57-11.2-12.57-11.2a1.45,1.45,0,0,1,0-2.57s11.09-10.27,12.57-11.2a9.79,9.79,0,0,1,5.75-2.07h126.05a.82.82,0,0,1,.82.82Z"/><path class="cls-10" d="M1058.1,665.92H931.72c-3.56,0-5.59,1.49-7.53,2.71-1.48.92-14.83,9.93-17.53,11.81a5.58,5.58,0,0,0-.17,9c1.77,1.24,16.22,10.9,17.69,11.82,1.94,1.21,4,2.71,7.53,2.71H1058.1c2.68,0,5.35-2.24,5.35-4.63V670.52C1063.46,668.16,1060.79,665.92,1058.1,665.92Z"/><line class="cls-10" x1="1063.25" y1="675.44" x2="1072.34" y2="675.44"/><line class="cls-10" x1="1063.25" y1="694.44" x2="1072.34" y2="694.44"/><g class="cls-11"><text class="cls-12" transform="translate(931.23 692.62)">Limm</text><text class="cls-13" transform="translate(985.88 692.62)">a</text><text class="cls-12" transform="translate(997.19 692.62)">tpl</text><text class="cls-13" transform="translate(1022.97 692.62)">a</text><text class="cls-12" transform="translate(1034.28 692.62)">tz</text></g></svg>