<svg id="Ebene_1" data-name="Ebene 1" xmlns="http://www.w3.org/2000/svg" viewBox="0 0 2000 900"><defs><style>.cls-1{fill:none;stroke:#666;stroke-width:1.44px;}.cls-1,.cls-2,.cls-3{stroke-miterlimit:10;}.cls-2{fill:#b3b3b3;stroke:#b3b3b3;}.cls-2,.cls-3{stroke-width:2px;}.cls-3{fill:#999;stroke:#999;}</style></defs><title>Zeichenfläche 1</title><line class="cls-1" x1="145.49" y1="643.32" x2="2000" y2="643.32"/><path class="cls-2" d="M170.69,565c0,.21-.64.38-1.43.38H123.6c-.79,0-1.43-.17-1.43-.38V553.16c0-.21.64-.38,1.43-.38h45.66c.79,0,1.43.17,1.43.38Z"/><path class="cls-3" d="M150.25,583.61s.08-7.43-.42-18.41c0,0-.8-1.7-3.54-1.7s-3.27,1.7-3.27,1.7c-.5,11-.42,18.41-.42,18.41s.11,1.59,3.84,1.59S150.25,583.61,150.25,583.61Z"/><path class="cls-2" d="M154.41,900.74s.17-292.61-.87-315.54c0,0-1.68-3.56-7.4-3.56s-6.83,3.56-6.83,3.56c-1,22.93-.87,315.54-.87,315.54s.22,3.31,8,3.31S154.41,900.74,154.41,900.74Z"/></svg>