<?xml version="1.0" encoding="utf-8"?>
<!-- Generator: Adobe Illustrator 21.1.0, SVG Export Plug-In . SVG Version: 6.00 Build 0)  -->
<svg version="1.1" id="Ebene_1" xmlns="http://www.w3.org/2000/svg" xmlns:xlink="http://www.w3.org/1999/xlink" x="0px" y="0px"
	 viewBox="0 0 1260 825" style="enable-background:new 0 0 1260 825;" xml:space="preserve">
<style type="text/css">
	.st0{fill:#B3B3B3;stroke:#B3B3B3;stroke-width:2;stroke-miterlimit:10;}
	.st1{fill:#999999;stroke:#999999;stroke-width:2;stroke-miterlimit:10;}
	.st2{fill:none;stroke:#666666;stroke-width:2;stroke-miterlimit:10;}
	.st3{fill:none;stroke:#666666;stroke-miterlimit:10;}
	.st4{fill:#FFFFFF;}
	.st5{fill:#0080C5;}
	.st6{fill:none;stroke:#A5A5A5;stroke-width:3.6;stroke-miterlimit:10;}
</style>
<title>Zeichenfläche 1</title>
<path class="st0" d="M182.9,825.2c0,0,0.1-292.6-0.9-315.5c0,0-1.7-3.6-7.4-3.6s-6.8,3.6-6.8,3.6c-1,22.9-0.9,315.5-0.9,315.5
	s0.2,3.3,8,3.3S182.9,825.2,182.9,825.2z"/>
<path class="st1" d="M178.7,508.1c0,0,0.1-7.4-0.4-18.4c0,0-0.8-1.7-3.5-1.7s-3.3,1.7-3.3,1.7c-0.5,11-0.4,18.4-0.4,18.4
	s0.1,1.6,3.8,1.6S178.7,508.1,178.7,508.1z"/>
<line class="st2" x1="174.9" y1="619.2" x2="174.9" y2="644.1"/>
<path class="st0" d="M199.1,489.5c0,0.2-0.6,0.4-1.4,0.4H152c-0.8,0-1.4-0.2-1.4-0.4v-11.8c0-0.2,0.6-0.4,1.4-0.4h45.7
	c0.8,0,1.4,0.2,1.4,0.4L199.1,489.5z"/>
<path class="st0" d="M1088.9,825.2c0,0,0.2-292.6-0.9-315.5c0,0-1.7-3.6-7.4-3.6s-6.8,3.6-6.8,3.6c-1,22.9-0.9,315.5-0.9,315.5
	s0.2,3.3,8,3.3S1088.9,825.2,1088.9,825.2z"/>
<path class="st1" d="M1084.7,508.1c0,0,0.1-7.4-0.4-18.4c0,0-0.8-1.7-3.5-1.7s-3.3,1.7-3.3,1.7c-0.5,11-0.4,18.4-0.4,18.4
	s0.1,1.6,3.8,1.6S1084.7,508.1,1084.7,508.1z"/>
<line class="st2" x1="1080.9" y1="619.2" x2="1080.9" y2="644.1"/>
<path class="st0" d="M1105.1,489.5c0,0.2-0.6,0.4-1.4,0.4H1058c-0.8,0-1.4-0.2-1.4-0.4v-11.8c0-0.2,0.6-0.4,1.4-0.4h45.7
	c0.8,0,1.4,0.2,1.4,0.4L1105.1,489.5z"/>
<line class="st3" x1="-0.2" y1="644" x2="1260" y2="644"/>
<rect x="86.7" y="676.1" class="st4" width="55.4" height="35.6"/>
<rect x="86.7" y="676.1" class="st5" width="55.5" height="18.8"/>
<path class="st6" d="M95.1,827V725.5c0-2.2,1.8-4,4-4h39c2.2,0,4-1.8,4-4V670c0-2.2-1.8-4-4-4H90.8c-2.2,0-4,1.8-4,4v157"/>
</svg>
