<svg id="Ebene_1" data-name="Ebene 1" xmlns="http://www.w3.org/2000/svg" viewBox="0 0 1260 825"><defs><style>.cls-1{fill:#b3b3b3;}.cls-1,.cls-7{stroke:#b3b3b3;}.cls-1,.cls-2,.cls-3,.cls-4,.cls-5,.cls-7{stroke-miterlimit:10;}.cls-1,.cls-2,.cls-3{stroke-width:2px;}.cls-2{fill:#999;stroke:#999;}.cls-3,.cls-4,.cls-7{fill:none;}.cls-3,.cls-4{stroke:#666;}.cls-10,.cls-11,.cls-5,.cls-9{fill:#f2f2f2;}.cls-5{stroke:#f2f2f2;stroke-width:4px;}.cls-6{fill:#0080c5;}.cls-7{stroke-width:3px;}.cls-10,.cls-11,.cls-8,.cls-9{isolation:isolate;}.cls-10,.cls-11,.cls-9{font-size:22px;font-family:Barlow-Bold, Barlow;font-weight:700;}.cls-9{letter-spacing:-0.06em;}.cls-11{letter-spacing:-0.02em;}</style></defs><title>Zeichenfläche 1</title><path class="cls-1" d="M182.87,825.25S183,532.64,182,509.71c0,0-1.68-3.56-7.4-3.56s-6.83,3.56-6.83,3.56c-1,22.93-.87,315.54-.87,315.54s.22,3.31,8,3.31S182.87,825.25,182.87,825.25Z"/><path class="cls-2" d="M178.7,508.13s.08-7.43-.42-18.41c0,0-.8-1.7-3.54-1.7s-3.27,1.7-3.27,1.7c-.5,11-.42,18.41-.42,18.41s.11,1.59,3.84,1.59S178.7,508.13,178.7,508.13Z"/><line class="cls-3" x1="174.88" y1="619.24" x2="174.88" y2="644.11"/><path class="cls-1" d="M199.14,489.47c0,.21-.64.38-1.43.38H152c-.79,0-1.43-.17-1.43-.38V477.68c0-.21.64-.38,1.43-.38h45.66c.79,0,1.43.17,1.43.38Z"/><path class="cls-1" d="M1088.87,825.25s.17-292.61-.87-315.54c0,0-1.68-3.56-7.4-3.56s-6.83,3.56-6.83,3.56c-1,22.93-.87,315.54-.87,315.54s.22,3.31,8,3.31S1088.87,825.25,1088.87,825.25Z"/><path class="cls-2" d="M1084.7,508.13s.08-7.43-.42-18.41c0,0-.8-1.7-3.54-1.7s-3.27,1.7-3.27,1.7c-.5,11-.42,18.41-.42,18.41s.11,1.59,3.84,1.59S1084.7,508.13,1084.7,508.13Z"/><line class="cls-3" x1="1080.88" y1="619.24" x2="1080.88" y2="644.11"/><path class="cls-1" d="M1105.14,489.47c0,.21-.64.38-1.43.38H1058c-.79,0-1.43-.17-1.43-.38V477.68c0-.21.64-.38,1.43-.38h45.66c.79,0,1.43.17,1.43.38Z"/><line class="cls-4" x1="-0.19" y1="644" x2="1259.96" y2="644"/><path class="cls-5" d="M153,698.68a.82.82,0,0,1-.82.82H69.28a9.79,9.79,0,0,1-5.75-2.07c-1.48-.93-16.76-11.2-16.76-11.2a1.45,1.45,0,0,1,0-2.57S62,673.39,63.53,672.46a9.79,9.79,0,0,1,5.75-2.07h83a.82.82,0,0,1,.82.82h0Z"/><path class="cls-6" d="M153,698.68a.82.82,0,0,1-.82.82H69.28a9.79,9.79,0,0,1-5.75-2.07C62.05,696.5,51,686.23,51,686.23a1.45,1.45,0,0,1,0-2.57s11.09-10.27,12.57-11.2a9.79,9.79,0,0,1,5.75-2.07h83a.82.82,0,0,1,.82.82h0Z"/><path class="cls-7" d="M152.11,665.9H68.81c-3.56,0-5.59,1.49-7.53,2.71-1.48.92-14.83,9.93-17.53,11.81a5.58,5.58,0,0,0-.17,9c1.77,1.24,16.22,10.9,17.69,11.82,1.94,1.21,4,2.71,7.53,2.71h83.3c2.68,0,5.35-2.24,5.35-4.63V670.5C157.45,668.14,154.79,665.9,152.11,665.9Z"/><g class="cls-8"><text class="cls-9" transform="translate(68.31 692.6)">W</text><text class="cls-10" transform="translate(86.13 692.6)">e</text><text class="cls-11" transform="translate(98.05 692.6)">r</text><text class="cls-10" transform="translate(105.91 692.6)">dohl</text></g><line class="cls-7" x1="157.25" y1="675.42" x2="166.33" y2="675.42"/><line class="cls-7" x1="157.25" y1="694.42" x2="166.33" y2="694.42"/></svg>