<svg id="Ebene_1" data-name="Ebene 1" xmlns="http://www.w3.org/2000/svg" viewBox="0 0 2000 900"><defs><style>.cls-1{fill:#4f9e6f;}.cls-2{fill:#a0daf7;}.cls-3{fill:#5a5a5a;}.cls-4{fill:#999;}.cls-5{fill:#ffc255;}.cls-6{fill:#e6e6e6;}.cls-7{fill:#68bc8a;}</style></defs><title>Zeichenfläche 1</title><path class="cls-1" d="M153.79,777.38s.66-6.88,6.38-7.95,43.16-10.54,48.39-11.82c6.39-1.57,6.08,2.5,6.08,5.36v10.72"/><path class="cls-1" d="M154.15,777.22c-3.23.31-5.67,1.32-7.18,5.13-1.19,3-16.17,40.7-18.56,46.69S126,850.62,126,856.61s-.22,4.24-.22,10.23,5.3,7.08,7.17,7.08c3.08,0,20.69-.45,24-.53,3-.07,4-1.29,4.75-3.29,1.25-3.34,3.35-10.19,8.1-14.53a23.23,23.23,0,0,1,26.74-3.09c6.74,3.83,11.74,11.9,11.74,18.16,0,2.27,1.16,3.14,2.48,3.14,1.55,0,1.52,0,2.56-.09,3-.14,2.42-2.24,2.5-3.8s.2-91.25.2-93.33c0-2.47-.84-3.59-3.37-3.48C211,773.15,159.52,776.71,154.15,777.22Z"/><polyline class="cls-2" points="143.37 791.39 186.32 791.03 184.93 821.16 129.86 825.41"/><circle class="cls-3" cx="185.24" cy="872.92" r="19.27"/><circle class="cls-4" cx="185.24" cy="872.92" r="7.09"/><circle class="cls-3" cx="357.53" cy="872.92" r="19.27"/><circle class="cls-4" cx="357.53" cy="872.92" r="7.09"/><circle class="cls-3" cx="400.86" cy="872.92" r="19.27"/><circle class="cls-4" cx="400.86" cy="872.92" r="7.09"/><rect class="cls-5" x="124.75" y="848.74" width="7.19" height="14.28"/><rect class="cls-1" x="219.97" y="747.16" width="235.6" height="110.53"/><rect class="cls-6" x="219.97" y="857.82" width="36.92" height="15.88"/><rect class="cls-6" x="426.94" y="857.82" width="28.38" height="15.88"/><polygon class="cls-7" points="251.13 852.61 281.8 752 324.33 752 293.66 852.61 251.13 852.61"/><polygon class="cls-7" points="301.02 852.61 331.69 752 374.22 752 343.55 852.61 301.02 852.61"/></svg>