<svg id="Ebene_1" data-name="Ebene 1" xmlns="http://www.w3.org/2000/svg" viewBox="0 0 1260 900"><defs><style>.cls-1{fill:#4f9e6f;}.cls-2{fill:#a0daf7;}.cls-3{fill:#5a5a5a;}.cls-4{fill:#999;}.cls-5{fill:#ffc255;}.cls-6{fill:#e6e6e6;}.cls-7{fill:#68bc8a;}</style></defs><title>Zeichenfläche 1</title><path class="cls-1" d="M500.79,767.38s.66-6.88,6.38-8,43.16-10.54,48.39-11.82c6.39-1.57,6.08,2.5,6.08,5.36v10.72"/><path class="cls-1" d="M501.15,767.22c-3.23.31-5.67,1.32-7.18,5.13-1.19,3-16.17,40.7-18.56,46.69S473,840.62,473,846.61s-.22,4.24-.22,10.23,5.3,7.08,7.17,7.08c3.08,0,20.69-.45,24-.53,3-.07,4-1.29,4.75-3.29,1.25-3.34,3.35-10.19,8.1-14.53a23.23,23.23,0,0,1,26.74-3.09c6.74,3.83,11.74,11.9,11.74,18.16,0,2.27,1.16,3.14,2.48,3.14a19.85,19.85,0,0,0,2.56-.09c3-.14,2.42-2.24,2.5-3.8s.2-91.25.2-93.33c0-2.47-.84-3.59-3.37-3.48C558,763.15,506.52,766.71,501.15,767.22Z"/><polyline class="cls-2" points="490.37 781.39 533.32 781.03 531.93 811.16 476.86 815.41"/><circle class="cls-3" cx="532.24" cy="862.92" r="19.27"/><circle class="cls-4" cx="532.24" cy="862.92" r="7.09"/><circle class="cls-3" cx="704.53" cy="862.92" r="19.27"/><circle class="cls-4" cx="704.53" cy="862.92" r="7.09"/><circle class="cls-3" cx="747.86" cy="862.92" r="19.27"/><circle class="cls-4" cx="747.86" cy="862.92" r="7.09"/><rect class="cls-5" x="471.75" y="838.74" width="7.19" height="14.28"/><rect class="cls-1" x="566.97" y="737.16" width="235.6" height="110.53"/><rect class="cls-6" x="566.97" y="847.82" width="36.92" height="15.88"/><rect class="cls-6" x="773.94" y="847.82" width="28.38" height="15.88"/><polygon class="cls-7" points="598.13 842.61 628.8 742 671.33 742 640.66 842.61 598.13 842.61"/><polygon class="cls-7" points="648.02 842.61 678.69 742 721.22 742 690.55 842.61 648.02 842.61"/></svg>