<svg id="Ebene_1" data-name="Ebene 1" xmlns="http://www.w3.org/2000/svg" viewBox="0 0 2000 900"><defs><style>.cls-1{fill:#b3b3b3;}.cls-1,.cls-7{stroke:#b3b3b3;}.cls-1,.cls-2,.cls-3,.cls-4,.cls-5,.cls-7{stroke-miterlimit:10;}.cls-1,.cls-2,.cls-3{stroke-width:2px;}.cls-2{fill:#999;stroke:#999;}.cls-3,.cls-4,.cls-7{fill:none;}.cls-3,.cls-4{stroke:#666;}.cls-5,.cls-8{fill:#f2f2f2;}.cls-5{stroke:#f2f2f2;stroke-width:4px;}.cls-6{fill:#0080c5;}.cls-7{stroke-width:3px;}.cls-8{font-size:22px;font-family:Barlow-SemiBold, Barlow;font-weight:700;}.cls-9{letter-spacing:-0.06em;}.cls-10{letter-spacing:-0.02em;}</style></defs><title>Zeichenfläche 1</title><path class="cls-1" d="M92.87,900.25S93,607.64,92,584.71c0,0-1.68-3.56-7.4-3.56s-6.83,3.56-6.83,3.56c-1,22.93-.87,315.54-.87,315.54s.22,3.31,8,3.31S92.87,900.25,92.87,900.25Z"/><path class="cls-2" d="M88.7,583.13s.08-7.43-.42-18.41c0,0-.8-1.7-3.54-1.7s-3.27,1.7-3.27,1.7c-.5,11-.42,18.41-.42,18.41s.11,1.59,3.84,1.59S88.7,583.13,88.7,583.13Z"/><line class="cls-3" x1="84.88" y1="694.24" x2="84.88" y2="719.11"/><path class="cls-1" d="M109.14,564.47c0,.21-.64.38-1.43.38H62c-.79,0-1.43-.17-1.43-.38V552.68c0-.21.64-.38,1.43-.38h45.66c.79,0,1.43.17,1.43.38Z"/><path class="cls-1" d="M1001,900.25s.17-292.61-.87-315.54c0,0-1.68-3.56-7.4-3.56s-6.83,3.56-6.83,3.56c-1,22.93-.87,315.54-.87,315.54s.22,3.31,8,3.31S1001,900.25,1001,900.25Z"/><path class="cls-2" d="M996.86,583.13s.08-7.43-.42-18.41c0,0-.8-1.7-3.54-1.7s-3.27,1.7-3.27,1.7c-.5,11-.42,18.41-.42,18.41s.11,1.59,3.84,1.59S996.86,583.13,996.86,583.13Z"/><line class="cls-3" x1="993.04" y1="694.24" x2="993.04" y2="719.11"/><path class="cls-1" d="M1017.3,564.47c0,.21-.64.38-1.43.38H970.21c-.79,0-1.43-.17-1.43-.38V552.68c0-.21.64-.38,1.43-.38h45.66c.79,0,1.43.17,1.43.38Z"/><path class="cls-1" d="M1909.18,900.25s.17-292.61-.87-315.54c0,0-1.68-3.56-7.4-3.56s-6.83,3.56-6.83,3.56c-1,22.93-.87,315.54-.87,315.54s.22,3.31,8,3.31S1909.18,900.25,1909.18,900.25Z"/><path class="cls-2" d="M1905,583.13s.08-7.43-.42-18.41c0,0-.8-1.7-3.54-1.7s-3.27,1.7-3.27,1.7c-.5,11-.42,18.41-.42,18.41s.11,1.59,3.84,1.59S1905,583.13,1905,583.13Z"/><line class="cls-3" x1="1901.19" y1="694.24" x2="1901.19" y2="719.11"/><path class="cls-1" d="M1925.46,564.47c0,.21-.64.38-1.43.38h-45.66c-.79,0-1.43-.17-1.43-.38V552.68c0-.21.64-.38,1.43-.38H1924c.79,0,1.43.17,1.43.38Z"/><line class="cls-4" x1="83.89" y1="719" x2="2000.93" y2="719"/><path class="cls-5" d="M971.76,786.18a.82.82,0,0,1-.82.82H888a9.79,9.79,0,0,1-5.75-2.07c-1.48-.93-16.76-11.2-16.76-11.2a1.45,1.45,0,0,1,0-2.57s15.27-10.27,16.76-11.2a9.79,9.79,0,0,1,5.75-2.07h83a.82.82,0,0,1,.82.82Z"/><path class="cls-6" d="M971.76,786.18a.82.82,0,0,1-.82.82H888a9.79,9.79,0,0,1-5.75-2.07c-1.48-.93-12.57-11.2-12.57-11.2a1.45,1.45,0,0,1,0-2.57s11.09-10.27,12.57-11.2a9.79,9.79,0,0,1,5.75-2.07h83a.82.82,0,0,1,.82.82Z"/><path class="cls-7" d="M970.83,753.4h-83.3c-3.56,0-5.59,1.49-7.53,2.71-1.48.92-14.83,9.93-17.53,11.81a5.58,5.58,0,0,0-.17,9c1.77,1.24,16.22,10.9,17.69,11.82,1.94,1.21,4,2.71,7.53,2.71h83.3c2.68,0,5.35-2.24,5.35-4.63V758C976.17,755.64,973.51,753.4,970.83,753.4Z"/><text class="cls-8" transform="translate(887.03 780.1)"><tspan class="cls-9">W</tspan><tspan x="17.82" y="0">e</tspan><tspan class="cls-10" x="29.74" y="0">r</tspan><tspan x="37.6" y="0">dohl</tspan></text><line class="cls-7" x1="975.97" y1="762.92" x2="985.05" y2="762.92"/><line class="cls-7" x1="975.97" y1="781.92" x2="985.05" y2="781.92"/></svg>